<?xml version="1.0" encoding="utf-8"?>
<!-- Generator: Adobe Illustrator 16.0.0, SVG Export Plug-In . SVG Version: 6.00 Build 0)  -->
<!DOCTYPE svg PUBLIC "-//W3C//DTD SVG 1.1//EN" "http://www.w3.org/Graphics/SVG/1.1/DTD/svg11.dtd">
<svg version="1.1"
	 id="svg2" xmlns:dc="http://purl.org/dc/elements/1.1/" xmlns:cc="http://creativecommons.org/ns#" xmlns:rdf="http://www.w3.org/1999/02/22-rdf-syntax-ns#" xmlns:svg="http://www.w3.org/2000/svg" xmlns:sodipodi="http://sodipodi.sourceforge.net/DTD/sodipodi-0.dtd" xmlns:inkscape="http://www.inkscape.org/namespaces/inkscape" sodipodi:docname="url-icon.svg" inkscape:version="0.48.2 r9819"
	 xmlns="http://www.w3.org/2000/svg" xmlns:xlink="http://www.w3.org/1999/xlink" x="0px" y="0px" width="50px" height="50px"
	 viewBox="0 0 50 50" enable-background="new 0 0 50 50" xml:space="preserve">
<radialGradient id="path2999_1_" cx="14152.9531" cy="-10393.1289" r="309.2599" gradientTransform="matrix(0.0808 0 0 -0.0808 -1118.761 -814.9147)" gradientUnits="userSpaceOnUse">
	<stop  offset="0" style="stop-color:#211E17"/>
	<stop  offset="1" style="stop-color:#16140F"/>
</radialGradient>
<path id="path2999" inkscape:connector-curvature="0" fill="url(#path2999_1_)" stroke="#6B6B6B" stroke-width="0.5255" stroke-miterlimit="1" d="
	M0.263,49.736c16.492,0,32.983,0,49.475,0c0-16.49,0-32.982,0-49.474c-16.491,0-32.983,0-49.475,0
	C0.263,16.754,0.263,33.246,0.263,49.736z"/>
<g>
	<path fill="#CCCCCC" d="M6.073,18.558h5.15c1.02,0,1.779,0.042,2.281,0.127c0.5,0.085,0.949,0.262,1.344,0.532
		c0.396,0.27,0.726,0.628,0.989,1.077s0.396,0.951,0.396,1.507c0,0.604-0.162,1.157-0.488,1.661
		c-0.324,0.504-0.766,0.882-1.322,1.134c0.785,0.229,1.389,0.618,1.811,1.169s0.633,1.198,0.633,1.942
		c0,0.586-0.137,1.156-0.408,1.709c-0.273,0.555-0.646,0.996-1.117,1.328c-0.472,0.33-1.053,0.534-1.744,0.61
		c-0.434,0.047-1.479,0.076-3.138,0.088H6.073V18.558z M8.674,20.702v2.979h1.705c1.014,0,1.644-0.015,1.89-0.044
		c0.445-0.053,0.796-0.207,1.05-0.461c0.256-0.255,0.383-0.59,0.383-1.006c0-0.398-0.109-0.722-0.33-0.971
		c-0.219-0.249-0.546-0.4-0.979-0.453c-0.258-0.029-0.999-0.044-2.224-0.044H8.674z M8.674,25.826v3.445h2.408
		c0.938,0,1.532-0.026,1.784-0.079c0.387-0.07,0.701-0.241,0.944-0.515c0.243-0.271,0.365-0.637,0.365-1.094
		c0-0.387-0.094-0.715-0.281-0.984s-0.459-0.466-0.813-0.589c-0.355-0.123-1.124-0.185-2.308-0.185H8.674z"/>
	<path fill="#CCCCCC" d="M19.028,31.442V18.558h3.894l2.338,8.789l2.311-8.789h3.902v12.885h-2.416V21.3l-2.559,10.143h-2.504
		L21.445,21.3v10.143H19.028z"/>
	<path fill="#CCCCCC" d="M34.057,31.442V18.558h4.176c1.582,0,2.613,0.064,3.094,0.193c0.738,0.193,1.355,0.614,1.854,1.261
		s0.748,1.484,0.748,2.509c0,0.791-0.145,1.456-0.432,1.995s-0.652,0.962-1.094,1.271c-0.443,0.307-0.893,0.511-1.35,0.61
		c-0.621,0.123-1.52,0.185-2.697,0.185h-1.697v4.86H34.057z M36.658,20.737v3.656h1.424c1.025,0,1.711-0.067,2.057-0.202
		s0.617-0.346,0.814-0.633c0.195-0.287,0.293-0.621,0.293-1.002c0-0.469-0.137-0.855-0.412-1.16s-0.625-0.495-1.047-0.571
		c-0.311-0.059-0.934-0.088-1.871-0.088H36.658z"/>
</g>
</svg>
