<?xml version="1.0" encoding="utf-8"?>
<!-- Generator: Adobe Illustrator 16.0.0, SVG Export Plug-In . SVG Version: 6.00 Build 0)  -->
<!DOCTYPE svg PUBLIC "-//W3C//DTD SVG 1.1//EN" "http://www.w3.org/Graphics/SVG/1.1/DTD/svg11.dtd">
<svg version="1.1"
	 id="svg2" xmlns:dc="http://purl.org/dc/elements/1.1/" xmlns:cc="http://creativecommons.org/ns#" xmlns:rdf="http://www.w3.org/1999/02/22-rdf-syntax-ns#" xmlns:svg="http://www.w3.org/2000/svg" xmlns:sodipodi="http://sodipodi.sourceforge.net/DTD/sodipodi-0.dtd" xmlns:inkscape="http://www.inkscape.org/namespaces/inkscape" sodipodi:docname="url-icon.svg" inkscape:version="0.48.2 r9819"
	 xmlns="http://www.w3.org/2000/svg" xmlns:xlink="http://www.w3.org/1999/xlink" x="0px" y="0px" width="50px" height="50px"
	 viewBox="0 0 50 50" enable-background="new 0 0 50 50" xml:space="preserve">
<radialGradient id="path2999_1_" cx="14152.9531" cy="-10393.1289" r="309.2599" gradientTransform="matrix(0.0808 0 0 -0.0808 -1118.761 -814.9147)" gradientUnits="userSpaceOnUse">
	<stop  offset="0" style="stop-color:#211E17"/>
	<stop  offset="1" style="stop-color:#16140F"/>
</radialGradient>
<path id="path2999" inkscape:connector-curvature="0" fill="url(#path2999_1_)" stroke="#6B6B6B" stroke-width="0.5255" stroke-miterlimit="1" d="
	M0.263,49.736c16.492,0,32.983,0,49.475,0c0-16.49,0-32.982,0-49.474c-16.491,0-32.983,0-49.475,0
	C0.263,16.754,0.263,33.246,0.263,49.736z"/>
<g>
	<path fill="#CCCCCC" d="M13.341,18.558h2.593v8.156c0,1.066-0.094,1.887-0.281,2.461c-0.252,0.75-0.709,1.353-1.371,1.807
		c-0.662,0.453-1.535,0.681-2.619,0.681c-1.271,0-2.25-0.356-2.936-1.067c-0.686-0.712-1.031-1.757-1.037-3.134l2.452-0.281
		c0.029,0.738,0.138,1.26,0.325,1.564c0.281,0.463,0.709,0.694,1.283,0.694c0.58,0,0.99-0.165,1.23-0.497
		c0.24-0.33,0.36-1.018,0.36-2.061V18.558z"/>
	<path fill="#CCCCCC" d="M18.703,31.442V18.558h4.175c1.582,0,2.613,0.064,3.093,0.193c0.738,0.193,1.357,0.614,1.855,1.261
		s0.746,1.484,0.746,2.509c0,0.791-0.143,1.456-0.43,1.995s-0.652,0.962-1.096,1.271c-0.441,0.307-0.891,0.511-1.348,0.61
		c-0.622,0.123-1.521,0.185-2.699,0.185h-1.696v4.86H18.703z M21.304,20.737v3.656h1.424c1.025,0,1.711-0.067,2.057-0.202
		s0.616-0.346,0.813-0.633c0.195-0.287,0.295-0.621,0.295-1.002c0-0.469-0.139-0.855-0.414-1.16
		c-0.275-0.305-0.624-0.495-1.046-0.571c-0.311-0.059-0.935-0.088-1.872-0.088H21.304z"/>
	<path fill="#CCCCCC" d="M36.703,26.705v-2.171h5.607v5.133c-0.545,0.527-1.336,0.992-2.369,1.393
		c-1.035,0.401-2.082,0.603-3.143,0.603c-1.348,0-2.521-0.282-3.523-0.849c-1.002-0.565-1.756-1.374-2.26-2.425
		c-0.504-1.053-0.756-2.196-0.756-3.433c0-1.342,0.281-2.534,0.844-3.577s1.387-1.843,2.471-2.399
		c0.826-0.428,1.854-0.642,3.084-0.642c1.6,0,2.85,0.335,3.748,1.006c0.9,0.671,1.479,1.598,1.736,2.782l-2.584,0.483
		c-0.182-0.633-0.523-1.132-1.023-1.499c-0.502-0.366-1.127-0.549-1.877-0.549c-1.137,0-2.041,0.36-2.711,1.081
		c-0.672,0.721-1.006,1.79-1.006,3.208c0,1.529,0.34,2.677,1.02,3.44c0.68,0.766,1.57,1.147,2.672,1.147
		c0.545,0,1.09-0.106,1.639-0.321c0.547-0.213,1.018-0.473,1.41-0.777v-1.635H36.703z"/>
</g>
</svg>
