<?xml version="1.0" encoding="utf-8"?>
<!-- Generator: Adobe Illustrator 16.0.0, SVG Export Plug-In . SVG Version: 6.00 Build 0)  -->
<!DOCTYPE svg PUBLIC "-//W3C//DTD SVG 1.1//EN" "http://www.w3.org/Graphics/SVG/1.1/DTD/svg11.dtd">
<svg version="1.1"
	 id="svg2" xmlns:dc="http://purl.org/dc/elements/1.1/" xmlns:cc="http://creativecommons.org/ns#" xmlns:rdf="http://www.w3.org/1999/02/22-rdf-syntax-ns#" xmlns:svg="http://www.w3.org/2000/svg" xmlns:sodipodi="http://sodipodi.sourceforge.net/DTD/sodipodi-0.dtd" xmlns:inkscape="http://www.inkscape.org/namespaces/inkscape" sodipodi:docname="url-icon.svg" inkscape:version="0.48.2 r9819"
	 xmlns="http://www.w3.org/2000/svg" xmlns:xlink="http://www.w3.org/1999/xlink" x="0px" y="0px" width="50px" height="50px"
	 viewBox="0 0 50 50" enable-background="new 0 0 50 50" xml:space="preserve">
<radialGradient id="path2999_1_" cx="14152.9531" cy="-10393.1289" r="309.2599" gradientTransform="matrix(0.0808 0 0 -0.0808 -1118.761 -814.9147)" gradientUnits="userSpaceOnUse">
	<stop  offset="0" style="stop-color:#211E17"/>
	<stop  offset="1" style="stop-color:#16140F"/>
</radialGradient>
<path id="path2999" inkscape:connector-curvature="0" fill="url(#path2999_1_)" stroke="#6B6B6B" stroke-width="0.5255" stroke-miterlimit="1" d="
	M0.263,49.736c16.492,0,32.983,0,49.475,0c0-16.49,0-32.982,0-49.474c-16.491,0-32.983,0-49.475,0
	C0.263,16.754,0.263,33.246,0.263,49.736z"/>
<g>
	<path fill="#CCCCCC" d="M6.696,31.441V18.558h4.175c1.582,0,2.613,0.064,3.094,0.193c0.738,0.193,1.357,0.613,1.855,1.261
		s0.746,1.484,0.746,2.51c0,0.791-0.143,1.456-0.43,1.995s-0.652,0.962-1.096,1.27c-0.441,0.308-0.891,0.512-1.348,0.611
		c-0.621,0.123-1.521,0.185-2.699,0.185H9.299v4.859H6.696z M9.299,20.737v3.656h1.424c1.025,0,1.711-0.067,2.057-0.202
		s0.615-0.346,0.813-0.633c0.195-0.287,0.295-0.621,0.295-1.002c0-0.469-0.139-0.855-0.414-1.16s-0.623-0.495-1.045-0.571
		c-0.311-0.059-0.936-0.088-1.873-0.088H9.299z"/>
	<path fill="#CCCCCC" d="M18.729,31.441V18.558h2.531l5.273,8.604v-8.604h2.417v12.884h-2.61l-5.194-8.401v8.401H18.729z"/>
	<path fill="#CCCCCC" d="M37.696,26.705v-2.171h5.607v5.132c-0.545,0.527-1.335,0.992-2.368,1.394
		c-1.035,0.401-2.082,0.603-3.143,0.603c-1.348,0-2.522-0.283-3.524-0.849s-1.755-1.374-2.259-2.426s-0.756-2.195-0.756-3.432
		c0-1.342,0.281-2.534,0.844-3.577s1.386-1.843,2.47-2.399c0.826-0.428,1.854-0.642,3.085-0.642c1.6,0,2.849,0.335,3.748,1.006
		s1.479,1.599,1.736,2.782l-2.584,0.483c-0.182-0.633-0.523-1.133-1.023-1.499c-0.502-0.366-1.127-0.549-1.877-0.549
		c-1.137,0-2.041,0.36-2.711,1.081c-0.672,0.721-1.007,1.79-1.007,3.208c0,1.529,0.34,2.676,1.02,3.44s1.57,1.146,2.672,1.146
		c0.545,0,1.091-0.106,1.64-0.32c0.547-0.214,1.018-0.473,1.41-0.777v-1.635H37.696z"/>
</g>
</svg>
