<?xml version="1.0" encoding="utf-8"?>
<!-- Generator: Adobe Illustrator 16.0.0, SVG Export Plug-In . SVG Version: 6.00 Build 0)  -->
<!DOCTYPE svg PUBLIC "-//W3C//DTD SVG 1.1//EN" "http://www.w3.org/Graphics/SVG/1.1/DTD/svg11.dtd">
<svg version="1.1"
	 id="svg2" xmlns:dc="http://purl.org/dc/elements/1.1/" xmlns:cc="http://creativecommons.org/ns#" xmlns:rdf="http://www.w3.org/1999/02/22-rdf-syntax-ns#" xmlns:svg="http://www.w3.org/2000/svg" xmlns:sodipodi="http://sodipodi.sourceforge.net/DTD/sodipodi-0.dtd" xmlns:inkscape="http://www.inkscape.org/namespaces/inkscape" inkscape:version="0.48.2 r9819" sodipodi:docname="url-icon.svg"
	 xmlns="http://www.w3.org/2000/svg" xmlns:xlink="http://www.w3.org/1999/xlink" x="0px" y="0px" width="50px" height="50px"
	 viewBox="0 0 50 50" enable-background="new 0 0 50 50" xml:space="preserve">
<radialGradient id="path2999_1_" cx="18744.7617" cy="13988.9453" r="309.2638" gradientTransform="matrix(0.0808 0 0 0.0808 -1489.7787 -1105.4569)" gradientUnits="userSpaceOnUse">
	<stop  offset="0" style="stop-color:#211E17"/>
	<stop  offset="1" style="stop-color:#16140F"/>
</radialGradient>
<path id="path2999" inkscape:connector-curvature="0" fill="url(#path2999_1_)" stroke="#6B6B6B" stroke-width="0.5255" stroke-miterlimit="1" d="
	M0.263,49.736c16.492,0,32.983,0,49.475,0c0-16.49,0-32.982,0-49.474c-16.491,0-32.983,0-49.475,0
	C0.263,16.754,0.263,33.246,0.263,49.736z"/>
<g>
	<path fill="#CCCCCC" d="M6.864,27.246L9.395,27c0.152,0.85,0.461,1.473,0.927,1.871s1.094,0.598,1.885,0.598
		c0.838,0,1.469-0.177,1.895-0.531c0.424-0.354,0.637-0.77,0.637-1.244c0-0.305-0.09-0.563-0.268-0.777
		c-0.18-0.214-0.491-0.4-0.937-0.559c-0.305-0.105-0.999-0.293-2.083-0.563c-1.395-0.345-2.373-0.77-2.936-1.274
		c-0.791-0.709-1.187-1.573-1.187-2.593c0-0.656,0.186-1.27,0.558-1.841s0.908-1.006,1.608-1.305s1.545-0.448,2.536-0.448
		c1.617,0,2.834,0.354,3.652,1.063c0.816,0.709,1.246,1.655,1.287,2.839L14.37,22.35c-0.111-0.662-0.351-1.138-0.717-1.428
		s-0.915-0.435-1.647-0.435c-0.756,0-1.348,0.155-1.775,0.466c-0.275,0.199-0.413,0.466-0.413,0.8c0,0.305,0.129,0.565,0.387,0.782
		c0.328,0.275,1.125,0.563,2.391,0.861s2.201,0.608,2.809,0.927c0.605,0.319,1.08,0.756,1.424,1.31
		c0.342,0.554,0.514,1.238,0.514,2.053c0,0.738-0.205,1.43-0.615,2.074s-0.99,1.123-1.74,1.437s-1.685,0.47-2.804,0.47
		c-1.629,0-2.88-0.376-3.753-1.129S7.034,28.688,6.864,27.246z"/>
	<path fill="#CCCCCC" d="M22.816,31.438L18.21,18.553h2.821l3.261,9.537l3.155-9.537h2.76l-4.613,12.884H22.816z"/>
	<path fill="#CCCCCC" d="M37.529,26.701V24.53h5.607v5.132c-0.545,0.527-1.336,0.992-2.369,1.394
		c-1.035,0.401-2.082,0.603-3.143,0.603c-1.348,0-2.521-0.283-3.523-0.849s-1.756-1.374-2.26-2.426s-0.756-2.196-0.756-3.432
		c0-1.342,0.281-2.534,0.844-3.577s1.387-1.843,2.471-2.399c0.826-0.428,1.854-0.642,3.084-0.642c1.6,0,2.85,0.335,3.748,1.006
		c0.9,0.671,1.479,1.598,1.736,2.782l-2.584,0.483c-0.182-0.633-0.523-1.132-1.023-1.499c-0.502-0.366-1.127-0.549-1.877-0.549
		c-1.137,0-2.041,0.36-2.711,1.081c-0.672,0.721-1.006,1.79-1.006,3.208c0,1.529,0.34,2.676,1.02,3.441s1.57,1.146,2.672,1.146
		c0.545,0,1.09-0.106,1.639-0.32c0.547-0.214,1.018-0.473,1.41-0.777v-1.635H37.529z"/>
</g>
</svg>
