<?xml version="1.0" encoding="utf-8"?>
<!-- Generator: Adobe Illustrator 16.0.0, SVG Export Plug-In . SVG Version: 6.00 Build 0)  -->
<!DOCTYPE svg PUBLIC "-//W3C//DTD SVG 1.1//EN" "http://www.w3.org/Graphics/SVG/1.1/DTD/svg11.dtd">
<svg version="1.1"
	 id="svg2" xmlns:dc="http://purl.org/dc/elements/1.1/" xmlns:cc="http://creativecommons.org/ns#" xmlns:rdf="http://www.w3.org/1999/02/22-rdf-syntax-ns#" xmlns:svg="http://www.w3.org/2000/svg" xmlns:sodipodi="http://sodipodi.sourceforge.net/DTD/sodipodi-0.dtd" xmlns:inkscape="http://www.inkscape.org/namespaces/inkscape" inkscape:version="0.48.2 r9819" sodipodi:docname="url-icon.svg"
	 xmlns="http://www.w3.org/2000/svg" xmlns:xlink="http://www.w3.org/1999/xlink" x="0px" y="0px" width="50px" height="50px"
	 viewBox="0 0 50 50" enable-background="new 0 0 50 50" xml:space="preserve">
<radialGradient id="path2999_1_" cx="9561.1445" cy="7252.3125" r="309.2559" gradientTransform="matrix(0.0808 0 0 0.0808 -747.743 -561.1366)" gradientUnits="userSpaceOnUse">
	<stop  offset="0" style="stop-color:#211E17"/>
	<stop  offset="1" style="stop-color:#16140F"/>
</radialGradient>
<path id="path2999" inkscape:connector-curvature="0" fill="url(#path2999_1_)" stroke="#6B6B6B" stroke-width="0.5255" stroke-miterlimit="1" d="
	M0.263,49.736c16.492,0,32.983,0,49.475,0c0-16.49,0-32.982,0-49.474c-16.491,0-32.983,0-49.475,0
	C0.263,16.754,0.263,33.246,0.263,49.736z"/>
<g>
	<path fill="#CCCCCC" d="M7.422,18.448h2.602v6.979c0,1.107,0.032,1.826,0.097,2.154c0.111,0.527,0.376,0.95,0.795,1.27
		s0.992,0.479,1.718,0.479c0.738,0,1.295-0.15,1.67-0.452s0.601-0.673,0.677-1.112s0.114-1.168,0.114-2.188v-7.128h2.602v6.768
		c0,1.546-0.07,2.64-0.211,3.279s-0.4,1.178-0.778,1.617s-0.883,0.789-1.516,1.05s-1.459,0.392-2.479,0.392
		c-1.23,0-2.164-0.143-2.799-0.427s-1.138-0.653-1.507-1.107s-0.612-0.931-0.729-1.429c-0.17-0.738-0.255-1.828-0.255-3.269V18.448z
		"/>
	<path fill="#CCCCCC" d="M20.447,31.332V18.448h5.476c1.377,0,2.378,0.116,3.002,0.347s1.123,0.643,1.498,1.235
		s0.563,1.269,0.563,2.03c0,0.967-0.284,1.765-0.853,2.395s-1.418,1.027-2.549,1.191c0.563,0.328,1.026,0.688,1.394,1.08
		c0.365,0.393,0.859,1.09,1.48,2.092l1.573,2.514H28.92l-1.881-2.803c-0.668-1.002-1.125-1.634-1.371-1.895
		s-0.507-0.439-0.782-0.536s-0.712-0.146-1.31-0.146h-0.527v5.379H20.447z M23.049,23.897h1.925c1.248,0,2.027-0.053,2.338-0.158
		s0.554-0.287,0.729-0.545s0.264-0.58,0.264-0.967c0-0.434-0.115-0.784-0.348-1.05c-0.23-0.267-0.558-0.435-0.979-0.505
		c-0.211-0.029-0.844-0.044-1.898-0.044h-2.03V23.897z"/>
	<path fill="#CCCCCC" d="M33.508,31.332V18.553h2.602v10.609h6.469v2.17H33.508z"/>
</g>
</svg>
