<?xml version="1.0" encoding="utf-8"?>
<!-- Generator: Adobe Illustrator 16.0.0, SVG Export Plug-In . SVG Version: 6.00 Build 0)  -->
<!DOCTYPE svg PUBLIC "-//W3C//DTD SVG 1.1//EN" "http://www.w3.org/Graphics/SVG/1.1/DTD/svg11.dtd">
<svg version="1.1"
	 id="svg2" xmlns:dc="http://purl.org/dc/elements/1.1/" xmlns:cc="http://creativecommons.org/ns#" xmlns:rdf="http://www.w3.org/1999/02/22-rdf-syntax-ns#" xmlns:svg="http://www.w3.org/2000/svg" xmlns:sodipodi="http://sodipodi.sourceforge.net/DTD/sodipodi-0.dtd" xmlns:inkscape="http://www.inkscape.org/namespaces/inkscape" inkscape:version="0.48.2 r9819" sodipodi:docname="url2-icon.svg"
	 xmlns="http://www.w3.org/2000/svg" xmlns:xlink="http://www.w3.org/1999/xlink" x="0px" y="0px" width="50px" height="50px"
	 viewBox="0 0 50 50" enable-background="new 0 0 50 50" xml:space="preserve">
<sodipodi:namedview  inkscape:cy="25" inkscape:cx="25" inkscape:zoom="4.72" showgrid="false" guidetolerance="10" gridtolerance="10" objecttolerance="10" bordercolor="#666666" pagecolor="#ffffff" borderopacity="1" id="namedview23" inkscape:current-layer="svg2" inkscape:window-maximized="1" inkscape:window-y="-8" inkscape:window-x="-8" inkscape:window-height="706" inkscape:pageshadow="2" inkscape:window-width="1366" inkscape:pageopacity="0">
	</sodipodi:namedview>
<radialGradient id="path2999_1_" cx="9561.1445" cy="7252.3125" r="309.2559" gradientTransform="matrix(0.0808 0 0 0.0808 -747.743 -561.1366)" gradientUnits="userSpaceOnUse">
	<stop  offset="0" style="stop-color:#272727"/>
	<stop  offset="1" style="stop-color:#414141"/>
</radialGradient>
<path id="path2999" inkscape:connector-curvature="0" fill="url(#path2999_1_)" stroke="#6B6B6B" stroke-width="0.5255" stroke-miterlimit="1" d="
	M0.263,49.736c16.492,0,32.983,0,49.475,0c0-16.49,0-32.982,0-49.474c-16.491,0-32.983,0-49.475,0
	C0.263,16.754,0.263,33.246,0.263,49.736z"/>
<g>
	<path fill="#CCCCCC" d="M11.15,25.947l1.401,0.444c-0.215,0.781-0.572,1.361-1.072,1.741c-0.5,0.379-1.134,0.568-1.902,0.568
		c-0.951,0-1.732-0.324-2.344-0.975c-0.612-0.648-0.918-1.537-0.918-2.663c0-1.191,0.308-2.117,0.923-2.776s1.424-0.989,2.427-0.989
		c0.875,0,1.587,0.259,2.134,0.776c0.326,0.306,0.57,0.746,0.732,1.318l-1.431,0.342c-0.084-0.371-0.261-0.664-0.53-0.879
		s-0.595-0.322-0.979-0.322c-0.531,0-0.961,0.19-1.292,0.571s-0.496,0.998-0.496,1.851c0,0.905,0.163,1.55,0.488,1.934
		s0.749,0.576,1.27,0.576c0.384,0,0.714-0.122,0.991-0.366S11.029,26.471,11.15,25.947z"/>
	<path fill="#CCCCCC" d="M13.499,25.044c0-0.729,0.109-1.341,0.327-1.836c0.163-0.365,0.385-0.692,0.667-0.981
		s0.59-0.504,0.925-0.645c0.446-0.189,0.96-0.283,1.543-0.283c1.055,0,1.898,0.327,2.532,0.981s0.95,1.564,0.95,2.729
		c0,1.156-0.314,2.06-0.942,2.713c-0.628,0.652-1.468,0.979-2.52,0.979c-1.064,0-1.911-0.324-2.539-0.975
		C13.813,27.078,13.499,26.184,13.499,25.044z M14.988,24.995c0,0.811,0.187,1.425,0.562,1.843c0.375,0.419,0.85,0.628,1.426,0.628
		s1.049-0.208,1.418-0.622c0.37-0.416,0.554-1.038,0.554-1.868c0-0.82-0.18-1.432-0.54-1.836s-0.837-0.605-1.433-0.605
		s-1.076,0.204-1.44,0.613S14.988,24.171,14.988,24.995z"/>
	<path fill="#CCCCCC" d="M21.57,28.579v-7.158h2.319c0.879,0,1.452,0.036,1.718,0.107c0.41,0.107,0.754,0.341,1.031,0.701
		c0.275,0.36,0.414,0.824,0.414,1.394c0,0.439-0.08,0.809-0.238,1.108c-0.16,0.299-0.363,0.535-0.608,0.706
		c-0.245,0.17-0.495,0.284-0.75,0.339c-0.345,0.068-0.845,0.103-1.499,0.103h-0.942v2.7H21.57z M23.015,22.632v2.031h0.791
		c0.57,0,0.951-0.038,1.143-0.112s0.343-0.192,0.452-0.352c0.109-0.16,0.164-0.345,0.164-0.557c0-0.26-0.077-0.475-0.23-0.645
		s-0.347-0.275-0.581-0.317c-0.172-0.033-0.519-0.049-1.04-0.049H23.015z"/>
	<path fill="#CCCCCC" d="M28.195,28.579v-7.158h1.445v7.158H28.195z"/>
	<path fill="#CCCCCC" d="M31.018,28.579v-7.158h5.309v1.211h-3.863v1.587h3.594v1.206h-3.594v1.948h4v1.206H31.018z"/>
	<path fill="#CCCCCC" d="M37.684,21.421h2.641c0.596,0,1.051,0.045,1.363,0.137c0.42,0.124,0.779,0.343,1.078,0.659
		c0.301,0.316,0.527,0.702,0.684,1.16s0.234,1.021,0.234,1.692c0,0.59-0.072,1.098-0.219,1.523c-0.18,0.521-0.436,0.942-0.768,1.265
		c-0.25,0.244-0.588,0.435-1.016,0.571c-0.318,0.102-0.744,0.151-1.279,0.151h-2.719V21.421z M39.129,22.632v4.741h1.078
		c0.404,0,0.695-0.023,0.875-0.068c0.234-0.059,0.428-0.158,0.584-0.298c0.154-0.14,0.279-0.37,0.377-0.69
		c0.098-0.321,0.146-0.758,0.146-1.312c0-0.553-0.049-0.978-0.146-1.274s-0.234-0.527-0.41-0.693s-0.398-0.278-0.668-0.337
		c-0.203-0.045-0.598-0.068-1.188-0.068H39.129z"/>
</g>
</svg>
